<?xml version="1.0" encoding="utf-8"?>
<!-- Generator: Adobe Illustrator 24.0.2, SVG Export Plug-In . SVG Version: 6.00 Build 0)  -->
<svg version="1.1" id="Capa_1" xmlns="http://www.w3.org/2000/svg" xmlns:xlink="http://www.w3.org/1999/xlink" x="0px" y="0px"
	 width="166.947px" height="67.236px" viewBox="0 0 141.5 48.8" style="enable-background:new 0 0 141.5 48.8;" xml:space="preserve">
<style type="text/css">
	.st0{fill:#FFFFFF;}
</style>
<g>
	<g>
		<path class="st0" d="M27.9,3c1.7,2.1,2.5,5.4,2.5,9.9s-0.8,7.8-2.5,9.9c-1.6,2-4.4,3-8.3,3c-3.4,0-6.6-0.1-9.8-0.4
			c-0.4-0.1-0.5,0-0.5-0.4V0.9c0-0.3,0.1-0.4,0.5-0.4C13,0.1,16.2,0,19.6,0C23.5,0,26.3,1,27.9,3z M16.1,5.9v14.1h3.5
			c2.9,0,4-2.1,4-7c0-5-1-7.1-4-7.1H16.1L16.1,5.9z"/>
		<path class="st0" d="M39.8,0.2c0.3,0,0.5,0.2,0.5,0.5v24.4c0,0.4-0.1,0.5-0.5,0.5H34c-0.3,0-0.5-0.2-0.5-0.5V0.7
			c0-0.4,0.1-0.5,0.5-0.5H39.8L39.8,0.2z"/>
		<path class="st0" d="M61.8,0.7c0.7,0.1,1,0.4,1,1.1v3.6c0,0.4-0.1,0.5-0.4,0.5h-8c-1.6,0-2.7,0.5-3.2,1.5s-0.7,2.8-0.7,5.6
			c0,2.7,0.2,4.6,0.8,5.6c0.5,1,1.5,1.5,3.2,1.5h3.2v-6.3c0-0.4,0.1-0.5,0.5-0.5h5.4c0.3,0,0.5,0.2,0.5,0.5v8.7c0,0.4-0.1,0.7-0.2,1
			c-0.4,0.7-1.5,1.3-3.2,1.8c-1.7,0.5-3.7,0.7-6,0.7c-4.3,0-7.1-0.9-8.6-2.6c-1.5-1.8-2.2-5.2-2.2-10.2c0-5.2,0.5-8.2,2.2-10.2
			c1.5-2.1,4-2.8,8.5-2.8C57.7,0,60.2,0.2,61.8,0.7z"/>
		<path class="st0" d="M84.5,0.2c0.4,0,0.5,0.1,0.5,0.5v4.9c0,0.3-0.1,0.5-0.5,0.5H73.6v4h10c0.4,0,0.5,0.1,0.5,0.5v4.6
			c0,0.3-0.1,0.5-0.5,0.5h-10v4h10.9c0.4,0,0.5,0.1,0.5,0.5v4.9c0,0.3-0.1,0.5-0.5,0.5H67.4c-0.3,0-0.5-0.1-0.5-0.5V0.7
			c0-0.4,0.1-0.5,0.5-0.5H84.5z"/>
		<path class="st0" d="M106.2,2c1.4,1.3,2.1,3.5,2.1,6.7c0,3.1-0.7,5.2-2,6.4c-1.3,1.1-3.8,1.7-7.3,1.7H95v8.5
			c0,0.4-0.1,0.5-0.5,0.5h-5.7c-0.4,0-0.5-0.1-0.5-0.5V0.9c0-0.3,0.1-0.4,0.5-0.4c3.2-0.3,6.5-0.4,10.2-0.4
			C102.4,0,104.8,0.7,106.2,2z M95,5.9v5.9h3.2c2.4,0,3.1-0.7,3.1-2.9s-0.7-3-3-3H95L95,5.9z"/>
		<path class="st0" d="M121.2,25.8c-8.7-0.2-10.9-2.8-11-12.9c0-5.2,0.6-8.2,2.4-10.2c1.7-2.1,4.3-2.7,8.7-2.7c4.4,0,7,0.7,8.7,2.7
			c1.7,2.1,2.4,5.1,2.4,10.2C132,23.1,129.9,25.7,121.2,25.8z M117.9,18.5c0.5,1,1.7,1.5,3.3,1.5s2.8-0.5,3.3-1.5
			c0.5-1,0.8-2.9,0.8-5.5c0-2.7-0.3-4.6-0.8-5.5c-0.5-1-1.7-1.5-3.3-1.5s-2.8,0.5-3.3,1.5s-0.8,2.9-0.8,5.5
			C117,15.6,117.3,17.4,117.9,18.5z"/>
	</g>
	<g>
		<path class="st0" d="M38.2,31.9c0.4,0.6,0.7,1.5,0.7,2.7s-0.2,2.1-0.7,2.7c-0.4,0.5-1.3,0.8-2.3,0.8C35,38.1,34,38,33.2,38
			c-0.1,0-0.1,0-0.1-0.1v-6.6c0-0.1,0.1-0.1,0.1-0.1C34.1,31,35,31,35.9,31C37,31,37.7,31.3,38.2,31.9z M34.9,32.6v3.8h1
			c0.8,0,1.1-0.6,1.1-1.9c0-1.4-0.3-1.9-1.1-1.9L34.9,32.6L34.9,32.6z"/>
		<path class="st0" d="M41.5,31.6c0,0.6-0.4,0.9-1,0.9c-0.7,0-1-0.4-1-0.9c0-0.6,0.4-0.9,1-0.9C41.1,30.8,41.5,31.1,41.5,31.6z
			 M41.2,33c0.1,0,0.1,0.1,0.1,0.1v4.8c0,0.1-0.1,0.1-0.1,0.1h-1.5c-0.1,0-0.1-0.1-0.1-0.1v-4.8c0-0.1,0.1-0.1,0.1-0.1H41.2z"/>
		<path class="st0" d="M45.4,33c0.1,0,0.1,0.1,0.1,0.2v1c0,0.1-0.1,0.1-0.1,0.1h-0.9c-0.4,0-0.4,0.1-0.4,0.4v3C44,38,44,38,43.9,38
			h-1.5c-0.1,0-0.1-0.1-0.1-0.1v-3.5c0-0.6,0.1-1,0.4-1.2c0.3-0.2,0.7-0.3,1.3-0.3C44.5,33,44.9,33,45.4,33z"/>
		<path class="st0" d="M50.1,33.5c0.3,0.4,0.4,1,0.4,2.1v0.3c0,0.1-0.1,0.2-0.2,0.2h-2.7c0,0.2,0.1,0.4,0.1,0.4
			c0.1,0.1,0.4,0.1,0.7,0.1h1.7c0.1,0,0.1,0.1,0.1,0.1v1c0,0.1-0.1,0.1-0.1,0.1c-0.4,0.1-1,0.1-1.9,0.1c-1,0-1.6-0.1-1.9-0.5
			c-0.3-0.4-0.5-1-0.5-2.1c0-1,0.1-1.7,0.5-2.1c0.3-0.4,1-0.5,1.9-0.5C49.3,33,49.9,33.1,50.1,33.5z M47.6,35h1.3
			c0-0.4-0.2-0.6-0.6-0.6C47.9,34.4,47.6,34.7,47.6,35z"/>
		<path class="st0" d="M55.2,33.1c0.1,0,0.1,0.1,0.1,0.2v1c0,0.1-0.1,0.1-0.1,0.1h-1.5c-0.3,0-0.4,0.1-0.5,0.2
			c-0.1,0.1-0.1,0.4-0.1,0.9s0.1,0.7,0.1,0.9c0.1,0.1,0.3,0.2,0.5,0.2h1.5c0.1,0,0.1,0.1,0.1,0.1v1c0,0.1-0.1,0.1-0.1,0.2
			c-0.4,0.1-0.9,0.1-1.5,0.1c-1,0-1.6-0.1-2-0.5c-0.2-0.2-0.3-0.4-0.4-0.8c-0.1-0.4-0.1-0.7-0.1-1.3c0-1.1,0.1-1.6,0.4-2.1
			c0.4-0.4,1-0.5,2-0.5C54.3,33,54.8,33,55.2,33.1z"/>
		<path class="st0" d="M59.9,33.1c0.1,0,0.1,0.1,0.1,0.2v1c0,0.1-0.1,0.1-0.1,0.1h-1.5c-0.3,0-0.4,0.1-0.5,0.2
			c-0.1,0.1-0.1,0.4-0.1,0.9s0.1,0.7,0.1,0.9s0.3,0.2,0.5,0.2h1.5c0.1,0,0.1,0.1,0.1,0.1v1c0,0.1-0.1,0.1-0.1,0.2
			c-0.4,0.1-0.9,0.1-1.5,0.1c-1,0-1.6-0.1-2-0.5c-0.2-0.2-0.3-0.4-0.4-0.8c-0.1-0.4-0.1-0.7-0.1-1.3c0-1.1,0.1-1.6,0.4-2.1
			c0.4-0.4,1-0.5,2-0.5C59,33,59.5,33,59.9,33.1z"/>
		<path class="st0" d="M62.6,31.6c0,0.6-0.4,0.9-1,0.9c-0.7,0-1-0.4-1-0.9c0-0.6,0.4-0.9,1-0.9C62.2,30.8,62.6,31.1,62.6,31.6z
			 M62.3,33c0.1,0,0.1,0.1,0.1,0.1v4.8c0,0.1-0.1,0.1-0.1,0.1h-1.5c-0.1,0-0.1-0.1-0.1-0.1v-4.8c0-0.1,0.1-0.1,0.1-0.1H62.3z"/>
		<path class="st0" d="M67.6,37.6c-0.3,0.4-1,0.5-2,0.5c-1,0-1.6-0.1-2-0.5c-0.3-0.4-0.5-1-0.5-2.1c0-1,0.1-1.7,0.5-2.1
			c0.3-0.4,1-0.5,2-0.5c1,0,1.6,0.1,2,0.5c0.4,0.4,0.5,1,0.5,2.1C68,36.6,67.9,37.2,67.6,37.6z M67.4,30.8
			C67.4,30.8,67.4,30.8,67.4,30.8l0.1,0.1c0,0.1,0,0.1-0.1,0.1l-1.8,1.5c0,0-0.1,0-0.1,0l-0.6-0.3c-0.1,0-0.1-0.1,0-0.1l0.7-1.3
			l0.1-0.1C65.6,30.8,67.4,30.8,67.4,30.8z M65.1,34.7c-0.1,0.1-0.1,0.4-0.1,0.9c0,0.4,0.1,0.7,0.1,0.9s0.3,0.2,0.5,0.2
			c0.2,0,0.4-0.1,0.5-0.2s0.1-0.4,0.1-0.9c0-0.4-0.1-0.7-0.1-0.9c-0.1-0.1-0.3-0.2-0.5-0.2C65.4,34.4,65.2,34.5,65.1,34.7z"/>
		<path class="st0" d="M73,33.4c0.3,0.3,0.4,0.9,0.4,1.8V38c0,0.1-0.1,0.1-0.1,0.1h-1.5c-0.1,0-0.1-0.1-0.1-0.1v-2.2
			c0-0.2,0-0.4,0-0.5c0-0.2,0-0.5-0.1-0.6c-0.1-0.1-0.3-0.2-0.7-0.2h-0.4v3.5c0,0.1-0.1,0.1-0.1,0.1h-1.5c-0.1,0-0.1-0.1-0.1-0.1
			v-4.6c0-0.1,0.1-0.1,0.1-0.1c0.4-0.1,1.3-0.1,2.4-0.1C72.2,33,72.7,33.1,73,33.4z"/>
		<path class="st0" d="M80.9,31.2c0.2,0.1,0.2,0.1,0.2,0.3v1c0,0.1-0.1,0.1-0.1,0.1h-2.2c-0.4,0-0.7,0.1-0.9,0.4
			c-0.1,0.2-0.2,0.7-0.2,1.5c0,0.7,0.1,1.3,0.2,1.5c0.1,0.3,0.4,0.4,0.9,0.4h0.9v-1.7c0-0.1,0.1-0.1,0.1-0.1h1.5
			c0.1,0,0.1,0.1,0.1,0.1v2.4c0,0.1,0,0.2-0.1,0.3c-0.1,0.2-0.4,0.4-0.9,0.4c-0.4,0.1-1,0.2-1.7,0.2c-1.2,0-2-0.2-2.4-0.7
			c-0.4-0.5-0.6-1.4-0.6-2.8s0.1-2.2,0.6-2.8c0.4-0.6,1.2-0.7,2.4-0.7C79.8,31,80.5,31,80.9,31.2z"/>
		<path class="st0" d="M86.4,33.5c0.3,0.4,0.4,1,0.4,2.1v0.3c0,0.1-0.1,0.2-0.2,0.2h-2.7c0,0.2,0.1,0.4,0.1,0.4
			c0.1,0.1,0.4,0.1,0.7,0.1h1.7c0.1,0,0.1,0.1,0.1,0.1v1c0,0.1-0.1,0.1-0.1,0.1c-0.4,0.1-1,0.1-1.9,0.1c-1,0-1.6-0.1-1.9-0.5
			s-0.5-1-0.5-2.1c0-1,0.1-1.7,0.5-2.1c0.3-0.4,1-0.5,1.9-0.5C85.4,33,86.1,33.1,86.4,33.5z M83.9,35h1.3c0-0.4-0.2-0.6-0.6-0.6
			C84,34.4,83.9,34.7,83.9,35z"/>
		<path class="st0" d="M91.7,33.4c0.3,0.3,0.4,0.9,0.4,1.8V38c0,0.1-0.1,0.1-0.1,0.1h-1.5c-0.1,0-0.1-0.1-0.1-0.1v-2.2
			c0-0.2,0-0.4,0-0.5c0-0.2,0-0.5-0.1-0.6c-0.1-0.1-0.3-0.2-0.7-0.2h-0.4v3.5c0,0.1-0.1,0.1-0.1,0.1h-1.5c-0.1,0-0.1-0.1-0.1-0.1
			v-4.6c0-0.1,0.1-0.1,0.1-0.1C88,33,88.9,33,90,33C90.8,33,91.4,33.1,91.7,33.4z"/>
		<path class="st0" d="M97.2,33.5c0.3,0.4,0.4,1,0.4,2.1v0.3c0,0.1-0.1,0.2-0.2,0.2h-2.7c0,0.2,0.1,0.4,0.1,0.4
			c0.1,0.1,0.4,0.1,0.7,0.1h1.7c0.1,0,0.1,0.1,0.1,0.1v1c0,0.1-0.1,0.1-0.1,0.1c-0.4,0.1-1,0.1-1.9,0.1c-1,0-1.6-0.1-1.9-0.5
			c-0.3-0.4-0.5-1-0.5-2.1c0-1,0.1-1.7,0.5-2.1c0.3-0.4,1-0.5,1.9-0.5C96.2,33,96.9,33.1,97.2,33.5z M94.7,35h1.3
			c0-0.4-0.2-0.6-0.6-0.6C94.9,34.4,94.7,34.7,94.7,35z"/>
		<path class="st0" d="M101.4,33c0.1,0,0.1,0.1,0.1,0.2v1c0,0.1-0.1,0.1-0.1,0.1h-0.9c-0.4,0-0.4,0.1-0.4,0.4v3
			c0,0.1-0.1,0.1-0.1,0.1h-1.5c-0.1,0-0.1-0.1-0.1-0.1v-3.5c0-0.6,0.1-1,0.4-1.2c0.3-0.2,0.7-0.3,1.3-0.3C100.6,33,101,33,101.4,33z
			"/>
		<path class="st0" d="M105.7,33.3c0.1,0.1,0.3,0.2,0.4,0.4c0.1,0.3,0.2,0.5,0.2,1v3c0,0.2-0.1,0.3-0.2,0.3
			c-0.7,0.1-1.3,0.2-2.1,0.2c-0.3,0-0.5,0-0.7,0c-0.3,0-0.8-0.1-1-0.2c-0.4-0.2-0.7-0.6-0.6-1.4c0-0.7,0.1-1,0.5-1.3
			c0.4-0.2,0.7-0.3,1.5-0.3h0.8v-0.1c0-0.3-0.1-0.4-0.5-0.4h-1.8c-0.1,0-0.1-0.1-0.1-0.1v-1.1c0-0.1,0-0.1,0.1-0.1
			c0.5-0.1,1.1-0.1,1.8-0.1C104.8,33,105.4,33.1,105.7,33.3z M104.5,35.9h-0.7c-0.4,0-0.5,0.1-0.5,0.4c0,0.2,0.1,0.4,0.5,0.4
			c0.2,0,0.4,0,0.7-0.1V35.9L104.5,35.9z"/>
		<path class="st0" d="M108.8,31c0.1,0,0.1,0.1,0.1,0.1v6.7c0,0.1-0.1,0.1-0.1,0.1h-1.5c-0.1,0-0.1-0.1-0.1-0.1v-6.7
			c0-0.1,0.1-0.1,0.1-0.1H108.8z"/>
		<path class="st0" d="M24.8,41.6c0.1,0,0.1,0.1,0.1,0.1v6.4c0,0.1-0.1,0.3-0.2,0.3c-0.7,0.1-1.5,0.2-2.1,0.2c-1,0-1.7-0.1-2-0.5
			c-0.4-0.4-0.5-1-0.5-2.1c0-1,0.1-1.7,0.4-2c0.3-0.4,0.8-0.6,1.6-0.6c0.3,0,0.7,0,1,0.1v-1.8c0-0.1,0.1-0.1,0.1-0.1L24.8,41.6
			L24.8,41.6z M23.1,45h-0.5c-0.4,0-0.6,0.1-0.7,0.2c-0.1,0.1-0.1,0.4-0.1,0.9c0,0.4,0,0.7,0.1,0.9c0.1,0.1,0.3,0.2,0.6,0.2
			c0.2,0,0.4,0,0.6-0.1C23.1,47.2,23.1,45,23.1,45z"/>
		<path class="st0" d="M29.9,44.1c0.3,0.4,0.4,1,0.4,2.1v0.3c0,0.1-0.1,0.2-0.2,0.2h-2.7c0,0.2,0.1,0.4,0.1,0.4
			c0.1,0.1,0.4,0.1,0.7,0.1h1.7c0.1,0,0.1,0.1,0.1,0.1v1c0,0.1-0.1,0.1-0.1,0.1c-0.4,0.1-1,0.1-1.9,0.1c-1,0-1.6-0.1-1.9-0.5
			c-0.3-0.4-0.5-1-0.5-2.1c0-1,0.1-1.7,0.5-2.1c0.3-0.4,1-0.5,1.9-0.5C29,43.6,29.6,43.7,29.9,44.1z M27.4,45.6h1.3
			c0-0.4-0.2-0.6-0.6-0.6C27.6,45,27.4,45.3,27.4,45.6z"/>
		<path class="st0" d="M37.7,42.2c0.4,0.4,0.6,1,0.6,1.8c0,0.9-0.2,1.5-0.5,1.8c-0.3,0.3-1,0.4-2,0.4h-1.1v2.3c0,0.1,0,0.1-0.1,0.1
			h-1.6c-0.1,0-0.1,0-0.1-0.1v-6.6c0-0.1,0.1-0.1,0.1-0.1c0.9-0.1,1.8-0.1,2.8-0.1C36.7,41.6,37.3,41.8,37.7,42.2z M34.7,43.2v1.6
			h0.9c0.7,0,0.9-0.2,0.9-0.8c0-0.6-0.2-0.8-0.9-0.8L34.7,43.2L34.7,43.2z"/>
		<path class="st0" d="M43,48.2c-0.3,0.4-1,0.5-2,0.5c-1,0-1.6-0.1-2-0.5c-0.3-0.4-0.5-1-0.5-2.1c0-1,0.1-1.7,0.5-2.1
			c0.3-0.4,1-0.5,2-0.5c1,0,1.6,0.1,2,0.5s0.5,1,0.5,2.1C43.5,47.2,43.4,47.8,43,48.2z M40.6,45.3c-0.1,0.1-0.1,0.4-0.1,0.9
			c0,0.4,0.1,0.7,0.1,0.9c0.1,0.1,0.3,0.2,0.5,0.2c0.3,0,0.4-0.1,0.5-0.2c0.1-0.1,0.1-0.4,0.1-0.9c0-0.4-0.1-0.7-0.1-0.9
			c-0.1-0.1-0.3-0.2-0.5-0.2C40.8,45,40.7,45.1,40.6,45.3z"/>
		<path class="st0" d="M45.9,41.6c0.1,0,0.1,0.1,0.1,0.1v1.8c0.4,0,0.7-0.1,1-0.1c0.7,0,1.3,0.2,1.6,0.6c0.3,0.4,0.4,1,0.4,2
			c0,1-0.1,1.7-0.5,2.1c-0.4,0.4-1,0.5-2,0.5c-0.6,0-1.3-0.1-2.1-0.2c-0.1,0-0.2-0.1-0.2-0.3v-6.4c0-0.1,0.1-0.1,0.1-0.1L45.9,41.6
			L45.9,41.6z M46,45v2.1c0.1,0,0.4,0.1,0.6,0.1c0.3,0,0.5-0.1,0.6-0.2s0.1-0.4,0.1-0.9s-0.1-0.7-0.1-0.9C47.1,45,46.9,45,46.5,45
			L46,45L46,45z"/>
		<path class="st0" d="M51.4,41.6c0.1,0,0.1,0.1,0.1,0.1v6.7c0,0.1-0.1,0.1-0.1,0.1h-1.5c-0.1,0-0.1-0.1-0.1-0.1v-6.7
			c0-0.1,0.1-0.1,0.1-0.1C49.9,41.6,51.4,41.6,51.4,41.6z"/>
		<path class="st0" d="M56.2,43.9c0.1,0.1,0.3,0.2,0.4,0.4c0.1,0.3,0.2,0.5,0.2,1v3c0,0.2-0.1,0.3-0.2,0.3c-0.7,0.1-1.3,0.2-2.1,0.2
			c-0.3,0-0.5,0-0.7,0c-0.3,0-0.8-0.1-1-0.2c-0.4-0.2-0.7-0.6-0.6-1.4c0-0.7,0.1-1,0.5-1.3s0.7-0.3,1.5-0.3H55v-0.1
			c0-0.3-0.1-0.4-0.5-0.4h-1.8c-0.1,0-0.1-0.1-0.1-0.1v-1.1c0-0.1,0-0.1,0.1-0.1c0.5-0.1,1.1-0.1,1.8-0.1
			C55.3,43.6,55.9,43.7,56.2,43.9z M55,46.5h-0.7c-0.4,0-0.5,0.1-0.5,0.4c0,0.2,0.1,0.4,0.5,0.4c0.2,0,0.4,0,0.7-0.1
			C55,47.2,55,46.5,55,46.5z"/>
		<path class="st0" d="M61.5,43.7c0.1,0,0.1,0.1,0.1,0.2v1c0,0.1-0.1,0.1-0.1,0.1h-1.5c-0.3,0-0.4,0.1-0.5,0.2
			c-0.1,0.1-0.1,0.4-0.1,0.9c0,0.4,0.1,0.7,0.1,0.9c0.1,0.1,0.3,0.2,0.5,0.2h1.5c0.1,0,0.1,0.1,0.1,0.1v1c0,0.1-0.1,0.1-0.1,0.2
			c-0.4,0.1-0.9,0.1-1.5,0.1c-1,0-1.6-0.1-2-0.5c-0.2-0.2-0.3-0.4-0.4-0.8s-0.1-0.7-0.1-1.3c0-1.1,0.1-1.6,0.4-2.1s1-0.5,2-0.5
			C60.5,43.6,61,43.6,61.5,43.7z"/>
		<path class="st0" d="M64.2,42.2c0,0.6-0.4,0.9-1,0.9c-0.7,0-1-0.4-1-0.9c0-0.6,0.4-0.9,1-0.9C63.8,41.4,64.2,41.7,64.2,42.2z
			 M63.9,43.6c0.1,0,0.1,0.1,0.1,0.1v4.8c0,0.1-0.1,0.1-0.1,0.1h-1.5c-0.1,0-0.1-0.1-0.1-0.1v-4.8c0-0.1,0.1-0.1,0.1-0.1H63.9z"/>
		<path class="st0" d="M69.1,48.2c-0.3,0.4-1,0.5-2,0.5c-1,0-1.6-0.1-2-0.5c-0.3-0.4-0.5-1-0.5-2.1c0-1,0.1-1.7,0.5-2.1
			c0.3-0.4,1-0.5,2-0.5c1,0,1.6,0.1,2,0.5c0.4,0.4,0.5,1,0.5,2.1C69.6,47.2,69.5,47.8,69.1,48.2z M69,41.4
			C69.1,41.4,69.1,41.4,69,41.4l0.1,0.1c0,0.1,0,0.1-0.1,0.1L67.1,43c0,0-0.1,0-0.1,0l-0.6-0.3c-0.1,0-0.1-0.1,0-0.1l0.7-1.3
			l0.1-0.1C67.2,41.4,69,41.4,69,41.4z M66.6,45.3c-0.1,0.1-0.1,0.4-0.1,0.9c0,0.4,0.1,0.7,0.1,0.9c0.1,0.1,0.3,0.2,0.5,0.2
			c0.2,0,0.4-0.1,0.5-0.2c0.1-0.1,0.1-0.4,0.1-0.9c0-0.4-0.1-0.7-0.1-0.9c-0.1-0.1-0.3-0.2-0.5-0.2C66.9,45,66.8,45.1,66.6,45.3z"/>
		<path class="st0" d="M74.7,44c0.3,0.3,0.4,0.9,0.4,1.8v2.8c0,0.1-0.1,0.1-0.1,0.1h-1.5c-0.1,0-0.1-0.1-0.1-0.1v-2.2
			c0-0.2,0-0.4,0-0.5c0-0.2,0-0.5-0.1-0.6C73.2,45.1,73,45,72.6,45h-0.4v3.5c0,0.1-0.1,0.1-0.1,0.1h-1.5c-0.1,0-0.1-0.1-0.1-0.1
			v-4.6c0-0.1,0.1-0.1,0.1-0.1c0.4-0.1,1.3-0.1,2.4-0.1C73.8,43.6,74.4,43.7,74.7,44z"/>
		<path class="st0" d="M82.1,41.6c0.1,0,0.1,0.1,0.1,0.1v6.4c0,0.1-0.1,0.3-0.2,0.3c-0.7,0.1-1.5,0.2-2.1,0.2c-1,0-1.7-0.1-2-0.5
			c-0.4-0.4-0.5-1-0.5-2.1c0-1,0.1-1.7,0.4-2c0.3-0.4,0.8-0.6,1.6-0.6c0.3,0,0.7,0,1,0.1v-1.8c0-0.1,0.1-0.1,0.1-0.1L82.1,41.6
			L82.1,41.6z M80.5,45H80c-0.4,0-0.6,0.1-0.7,0.2c-0.1,0.1-0.1,0.4-0.1,0.9c0,0.4,0,0.7,0.1,0.9c0.1,0.1,0.3,0.2,0.6,0.2
			c0.2,0,0.4,0,0.6-0.1C80.5,47.2,80.5,45,80.5,45z"/>
		<path class="st0" d="M87.2,44.1c0.3,0.4,0.4,1,0.4,2.1v0.3c0,0.1-0.1,0.2-0.2,0.2h-2.7c0,0.2,0.1,0.4,0.1,0.4
			c0.1,0.1,0.4,0.1,0.7,0.1h1.7c0.1,0,0.1,0.1,0.1,0.1v1c0,0.1-0.1,0.1-0.1,0.1c-0.4,0.1-1,0.1-1.9,0.1c-1,0-1.6-0.1-1.9-0.5
			s-0.5-1-0.5-2.1c0-1,0.1-1.7,0.5-2.1c0.3-0.4,1-0.5,1.9-0.5C86.3,43.6,86.9,43.7,87.2,44.1z M84.7,45.6H86c0-0.4-0.2-0.6-0.6-0.6
			C84.9,45,84.7,45.3,84.7,45.6z"/>
		<path class="st0" d="M92.9,48.7c-2.4-0.1-2.9-0.7-3-3.5c0-1.4,0.1-2.2,0.7-2.8c0.5-0.6,1.2-0.7,2.4-0.7c1.2,0,1.9,0.2,2.4,0.7
			c0.4,0.5,0.7,1.4,0.7,2.8C95.9,47.9,95.3,48.6,92.9,48.7z M92,46.6c0.1,0.3,0.4,0.4,0.9,0.4c0.4,0,0.7-0.1,0.9-0.4
			c0.1-0.3,0.2-0.8,0.2-1.5s-0.1-1.3-0.2-1.5c-0.1-0.3-0.4-0.4-0.9-0.4c-0.4,0-0.7,0.1-0.9,0.4c-0.1,0.3-0.2,0.8-0.2,1.5
			C91.8,45.9,91.9,46.4,92,46.6z"/>
		<path class="st0" d="M100.5,43.9c0.1,0.1,0.3,0.2,0.4,0.4c0.1,0.3,0.2,0.5,0.2,1v3c0,0.2-0.1,0.3-0.2,0.3
			c-0.7,0.1-1.3,0.2-2.1,0.2c-0.3,0-0.5,0-0.7,0c-0.3,0-0.8-0.1-1-0.2c-0.4-0.2-0.7-0.6-0.6-1.4c0-0.7,0.1-1,0.5-1.3
			c0.4-0.2,0.7-0.3,1.5-0.3h0.8v-0.1c0-0.3-0.1-0.4-0.5-0.4H97c-0.1,0-0.1-0.1-0.1-0.1v-1.1c0-0.1,0-0.1,0.1-0.1
			c0.5-0.1,1.1-0.1,1.8-0.1C99.6,43.6,100.2,43.7,100.5,43.9z M99.3,46.5h-0.7c-0.4,0-0.5,0.1-0.5,0.4c0,0.2,0.1,0.4,0.5,0.4
			c0.2,0,0.4,0,0.7-0.1V46.5z"/>
		<path class="st0" d="M106.8,43.6c0.1,0,0.1,0.1,0.1,0.1l-1.5,2.3l1.6,2.4c0.1,0.1,0,0.1-0.1,0.1h-1.8c-0.1,0-0.1,0-0.1-0.1
			l-0.7-1.2l-0.7,1.2c-0.1,0.1-0.1,0.1-0.1,0.1h-1.8c-0.1,0-0.1-0.1-0.1-0.1l1.6-2.4l-1.5-2.3c-0.1-0.1-0.1-0.1,0.1-0.1h1.8
			c0.1,0,0.1,0,0.1,0.1l0.6,1l0.6-1c0.1-0.1,0.1-0.1,0.1-0.1C105,43.6,106.8,43.6,106.8,43.6z"/>
		<path class="st0" d="M111.2,43.9c0.1,0.1,0.3,0.2,0.4,0.4c0.1,0.3,0.2,0.5,0.2,1v3c0,0.2-0.1,0.3-0.2,0.3
			c-0.7,0.1-1.3,0.2-2.1,0.2c-0.3,0-0.5,0-0.7,0c-0.3,0-0.8-0.1-1-0.2c-0.4-0.2-0.7-0.6-0.6-1.4c0-0.7,0.1-1,0.5-1.3
			c0.4-0.2,0.7-0.3,1.5-0.3h0.8v-0.1c0-0.3-0.1-0.4-0.5-0.4h-1.8c-0.1,0-0.1-0.1-0.1-0.1v-1.1c0-0.1,0-0.1,0.1-0.1
			c0.5-0.1,1.1-0.1,1.8-0.1C110.3,43.6,110.8,43.7,111.2,43.9z M110,46.5h-0.7c-0.4,0-0.5,0.1-0.5,0.4c0,0.2,0.1,0.4,0.5,0.4
			c0.2,0,0.4,0,0.7-0.1V46.5L110,46.5z"/>
		<path class="st0" d="M116.4,43.7c0.1,0,0.1,0.1,0.1,0.2v1c0,0.1-0.1,0.1-0.1,0.1h-1.5c-0.3,0-0.4,0.1-0.5,0.2
			c-0.1,0.1-0.1,0.4-0.1,0.9c0,0.4,0.1,0.7,0.1,0.9c0.1,0.1,0.3,0.2,0.5,0.2h1.5c0.1,0,0.1,0.1,0.1,0.1v1c0,0.1-0.1,0.1-0.1,0.2
			c-0.4,0.1-0.9,0.1-1.5,0.1c-1,0-1.6-0.1-2-0.5c-0.2-0.2-0.3-0.4-0.4-0.8s-0.1-0.7-0.1-1.3c0-1.1,0.1-1.6,0.4-2.1
			c0.4-0.4,1-0.5,2-0.5C115.5,43.6,116,43.6,116.4,43.7z"/>
		<path class="st0" d="M121.1,43.9c0.1,0.1,0.3,0.2,0.4,0.4c0.1,0.3,0.2,0.5,0.2,1v3c0,0.2-0.1,0.3-0.2,0.3
			c-0.7,0.1-1.3,0.2-2.1,0.2c-0.3,0-0.5,0-0.7,0c-0.3,0-0.8-0.1-1-0.2c-0.4-0.2-0.7-0.6-0.6-1.4c0-0.7,0.1-1,0.5-1.3
			c0.4-0.2,0.7-0.3,1.5-0.3h0.8v-0.1c0-0.3-0.1-0.4-0.5-0.4h-1.9c-0.1,0-0.1-0.1-0.1-0.1v-1.1c0-0.1,0-0.1,0.1-0.1
			c0.5-0.1,1.1-0.1,1.8-0.1C120.1,43.6,120.7,43.7,121.1,43.9z M119.9,46.5h-0.7c-0.4,0-0.5,0.1-0.5,0.4c0,0.2,0.1,0.4,0.5,0.4
			c0.2,0,0.4,0,0.7-0.1V46.5L119.9,46.5z"/>
	</g>
</g>
</svg>
