<svg xmlns="http://www.w3.org/2000/svg" viewBox="0 0 135 50"><defs><style>.cls-1{fill:#8E418D;}.cls-2{fill:#fff;}.cls-3{fill:#74e0c1;}</style></defs><g id="Capa_2" data-name="Capa 2"><rect class="cls-1" width="135" height="50"/></g><g id="Capa_1" data-name="Capa 1"><rect class="cls-2" y="14.1" width="0.8" height="20.81"/><path class="cls-3" d="M15.08,21a2.29,2.29,0,0,1,2.43-2.12A2.3,2.3,0,0,1,20,21a2.3,2.3,0,0,1-2.44,2.12A2.29,2.29,0,0,1,15.08,21Z"/><path class="cls-3" d="M21.92,28.06a2.3,2.3,0,0,1,2.44-2.12,2.3,2.3,0,0,1,2.44,2.12,2.3,2.3,0,0,1-2.44,2.11A2.3,2.3,0,0,1,21.92,28.06Z"/><path class="cls-3" d="M28.77,25.69a2.46,2.46,0,0,1,4.87,0,2.46,2.46,0,0,1-4.87,0Z"/><path class="cls-3" d="M28.77,30.42a2.46,2.46,0,0,1,4.87,0,2.46,2.46,0,0,1-4.87,0Z"/><rect class="cls-2" x="34.23" y="14.1" width="0.8" height="20.81"/><rect class="cls-2" x="27.39" y="14.1" width="0.8" height="20.81"/><rect class="cls-2" x="20.54" y="14.1" width="0.8" height="20.81"/><rect class="cls-2" x="13.69" y="14.1" width="0.8" height="20.81"/><rect class="cls-2" x="6.85" y="14.1" width="0.8" height="20.81"/><path class="cls-3" d="M15.08,25.69a2.29,2.29,0,0,1,2.43-2.12A2.3,2.3,0,0,1,20,25.69a2.29,2.29,0,0,1-2.44,2.11A2.29,2.29,0,0,1,15.08,25.69Z"/><path class="cls-3" d="M21.92,32.79a2.29,2.29,0,0,1,2.44-2.11,2.29,2.29,0,0,1,2.44,2.11,2.3,2.3,0,0,1-2.44,2.12A2.3,2.3,0,0,1,21.92,32.79Z"/><path class="cls-3" d="M15.08,30.42a2.29,2.29,0,0,1,2.43-2.11A2.3,2.3,0,0,1,20,30.42a2.3,2.3,0,0,1-2.44,2.12A2.29,2.29,0,0,1,15.08,30.42Z"/><path class="cls-3" d="M8.23,28.06a2.3,2.3,0,0,1,2.44-2.12,2.3,2.3,0,0,1,2.44,2.12,2.3,2.3,0,0,1-2.44,2.11A2.3,2.3,0,0,1,8.23,28.06Z"/><path class="cls-3" d="M8.23,23.32a2.3,2.3,0,0,1,2.44-2.12,2.3,2.3,0,0,1,2.44,2.12,2.29,2.29,0,0,1-2.44,2.11A2.29,2.29,0,0,1,8.23,23.32Z"/><path class="cls-3" d="M8.23,18.58a2.3,2.3,0,0,1,2.44-2.12,2.3,2.3,0,0,1,2.44,2.12,2.3,2.3,0,0,1-2.44,2.12A2.3,2.3,0,0,1,8.23,18.58Z"/><path class="cls-3" d="M1.38,21a2.3,2.3,0,0,1,2.44-2.12A2.3,2.3,0,0,1,6.26,21a2.3,2.3,0,0,1-2.44,2.12A2.3,2.3,0,0,1,1.38,21Z"/><path class="cls-3" d="M1.39,16.21A2.29,2.29,0,0,1,3.83,14.1a2.29,2.29,0,0,1,2.44,2.11,2.3,2.3,0,0,1-2.44,2.12A2.3,2.3,0,0,1,1.39,16.21Z"/><path class="cls-2" d="M102,13.74h5.14v21s-5.13.52-5.13-4.79Zm-2.36,21H88.62c-4.22,0-6.52-4.53-6.52-7V20.78c0-2.5,2.3-7,6.52-7H99.79V19.1H89.5c-1.33,0-2.15,1.65-2.15,2.65v5.19A2.71,2.71,0,0,0,90,29.71h5.47V26.47H91.24V21.92h6.29c1.39,0,2.16.58,2.16,1.63Zm-19,0H72.14c-4.22,0-7.4-4.53-7.4-7V20.78c0-2.5,3.18-7,7.4-7h8.58V19.1H72.14c-1.33,0-2.15,1.65-2.15,2.65H80.72v5.19H70a2.72,2.72,0,0,0,2.65,2.78h8.08ZM52.31,26.81v8H47.15v-21h2.28c3.22,0,8.34,10.91,8.34,10.91V13.74h5.14v21H59.48C57.69,34.76,52.31,26.81,52.31,26.81ZM39.21,13.74h5.14v21s-5.13.52-5.13-4.79Z"/></g></svg>